<svg version="1.2" preserveAspectRatio="xMidYMid meet" viewBox="31.349999999999998 119.8499971236 325.5 112.4999973" zoomAndPan="magnify" xmlns:xlink="http://www.w3.org/1999/xlink" xmlns="http://www.w3.org/2000/svg" style="max-height: 500px" width="325.5" height="112.4999973"><g id="6f3d1adf40"><path d="M 199.242188 123.445312 C 201.167969 124.332031 202.792969 125.347656 204.375 126.75 L 205.191406 127.457031 C 210.542969 132.441406 213.710938 139.726562 215.835938 146.613281 C 220.988281 164.210938 221.527344 183.835938 217.242188 201.699219 C 215.160156 209.984375 212.226562 218.335938 206.257812 224.644531 C 203.710938 227.238281 200.972656 229.144531 197.511719 230.28125 C 194.34375 231.066406 191.074219 230.90625 187.945312 230.015625 C 184.285156 228.734375 181.152344 226.707031 178.5 223.875 C 172.589844 216.644531 169.363281 207.78125 167.785156 198.640625 C 167.246094 195.191406 166.867188 191.71875 166.5 188.25 C 167.929688 187.753906 169.382812 187.347656 170.859375 187.03125 C 173.355469 186.425781 175.503906 185.347656 177.75 184.125 L 178.5 183.75 L 178.601562 184.617188 C 179.71875 193.902344 181.003906 203.199219 186.679688 210.941406 C 187.789062 212.332031 189.242188 213.132812 190.828125 213.890625 C 192.433594 214.210938 193.789062 214.167969 195.375 213.75 C 197.335938 212.855469 198.605469 211.742188 199.875 210 C 203.515625 203.84375 204.726562 197.097656 205.875 190.125 C 205.460938 190.511719 205.460938 190.511719 205.089844 191.113281 C 203.660156 193.199219 202.148438 194.625 199.875 195.75 C 197.136719 196.800781 194.570312 197.042969 191.664062 196.710938 C 189.019531 196.230469 187.019531 195.332031 184.945312 193.617188 C 183.21875 191.96875 181.984375 190.226562 181.289062 187.929688 C 180.667969 185.488281 180.625 183.097656 180.632812 180.585938 L 180.613281 179.371094 C 180.613281 176.320312 181.125 173.796875 182.371094 171.015625 C 183.9375 168.382812 185.679688 166.945312 188.320312 165.445312 C 191.191406 164.234375 194.554688 164.359375 197.625 164.625 C 200.113281 165.144531 202.117188 166.222656 204.128906 167.753906 C 204.882812 168.507812 205.359375 169.320312 205.875 170.25 C 206.171875 161.789062 204.597656 152.820312 201 145.125 C 199.941406 143.21875 198.855469 141.609375 197.066406 140.332031 C 195.695312 139.582031 194.476562 139.164062 192.9375 138.890625 C 190.730469 139.285156 188.902344 140.167969 187.15625 141.582031 C 184.875 143.933594 183.628906 147.074219 182.25 150 C 182.003906 150.5 181.753906 151 181.5 151.5 L 181.003906 151.085938 C 177.890625 148.621094 174.414062 147.011719 170.625 145.875 C 171.875 140.925781 174.011719 136.140625 177 132 L 177.757812 130.949219 C 180.070312 127.9375 182.714844 125.523438 186.167969 123.886719 C 190.585938 122.128906 194.722656 121.664062 199.242188 123.445312 M 190.3125 172.371094 C 189.296875 173.28125 188.824219 174.261719 188.25 175.5 C 187.730469 177.207031 187.792969 178.910156 187.78125 180.679688 L 187.757812 181.675781 C 187.746094 183.792969 187.992188 185.253906 189 187.125 C 190.027344 188.3125 190.925781 189.148438 192.375 189.75 C 193.90625 189.96875 195.421875 189.984375 196.898438 189.492188 C 198.015625 188.914062 198.792969 188.203125 199.617188 187.265625 C 200.78125 184.9375 201.164062 182.382812 201.09375 179.785156 C 200.855469 177.480469 200.371094 175.246094 199.21875 173.226562 C 198.101562 172.261719 197.164062 171.816406 195.75 171.375 C 193.722656 171.082031 192.050781 171.238281 190.3125 172.371094" style="stroke:none;fill-rule:nonzero;fill:#1394e1;fill-opacity:1;"/><path d="M 36 148.125 L 52.125 148.125 C 54.542969 153.425781 56.832031 158.765625 59.039062 164.15625 L 59.976562 166.4375 C 60.4375 167.558594 60.902344 168.683594 61.363281 169.804688 C 62.546875 172.691406 63.742188 175.574219 64.945312 178.453125 L 65.402344 179.550781 L 66.375 181.875 C 67.621094 179.179688 68.800781 176.464844 69.914062 173.710938 L 70.375 172.578125 C 70.699219 171.789062 71.019531 170.996094 71.339844 170.203125 C 72.175781 168.148438 73.011719 166.097656 73.847656 164.042969 L 74.347656 162.820312 C 75.609375 159.710938 76.882812 156.605469 78.160156 153.503906 C 78.441406 152.824219 78.71875 152.148438 78.996094 151.46875 L 79.492188 150.269531 L 79.914062 149.25 C 80.25 148.5 80.25 148.5 80.625 148.125 L 95.625 148.125 L 95.625 202.875 L 84 202.875 L 83.625 168.375 C 79.78125 177.550781 75.945312 186.726562 72.121094 195.910156 C 71.640625 197.058594 71.164062 198.207031 70.691406 199.359375 L 70.179688 200.601562 L 69.734375 201.691406 C 69.375 202.5 69.375 202.5 69 202.875 C 67.988281 202.902344 66.988281 202.910156 65.976562 202.898438 L 65.113281 202.894531 C 64.410156 202.886719 63.703125 202.882812 63 202.875 C 61.394531 199.765625 59.972656 196.617188 58.640625 193.382812 C 58.21875 192.371094 57.800781 191.359375 57.378906 190.347656 L 57.03125 189.515625 C 55.160156 185.027344 53.242188 180.554688 51.332031 176.078125 C 50.847656 174.945312 50.363281 173.816406 49.882812 172.679688 L 49.4375 171.644531 L 49.027344 170.6875 C 48.910156 170.410156 48.792969 170.136719 48.671875 169.851562 C 48.421875 169.242188 48.207031 168.621094 48 168 L 47.625 202.875 L 36 202.875 Z M 36 148.125" style="stroke:none;fill-rule:nonzero;fill:#1e1e1e;fill-opacity:1;"/><path d="M 129.945312 148.679688 C 133.046875 150.085938 135.777344 151.789062 137.84375 154.539062 C 138.917969 156.195312 139.824219 157.792969 139.949219 159.792969 L 139.921875 160.992188 L 139.902344 162.207031 L 139.875 163.125 C 138.234375 163.234375 136.59375 163.300781 134.953125 163.359375 L 133.546875 163.453125 C 132.1875 163.492188 131.066406 163.480469 129.75 163.125 C 128.894531 162.226562 128.4375 161.414062 127.945312 160.28125 C 127.5625 159.351562 127.5625 159.351562 126.832031 158.808594 C 124.246094 157.378906 121.816406 157.347656 118.949219 157.394531 C 117.707031 157.449219 116.6875 157.601562 115.546875 158.132812 C 114.390625 158.929688 114.390625 158.929688 113.625 159.820312 C 113.089844 161.332031 113.054688 162.664062 113.25 164.25 C 113.5625 165.5 113.5625 165.5 114.375 166.5 C 117.175781 168.957031 121.105469 169.628906 124.640625 170.417969 C 128.855469 171.363281 132.867188 172.507812 136.125 175.5 C 138.40625 177.71875 139.855469 179.890625 140.839844 182.914062 C 141.449219 186.105469 141.335938 189.65625 140.273438 192.726562 C 138.9375 195.75 136.796875 197.984375 134.226562 200.015625 C 133.742188 200.351562 133.25 200.679688 132.75 201 L 132.082031 201.429688 C 128.695312 203.347656 124.757812 203.734375 120.9375 203.765625 C 116.609375 203.730469 112.246094 203.042969 108.375 201 C 105.738281 199.320312 103.808594 197.304688 102.304688 194.566406 C 101.34375 192.566406 100.695312 190.464844 100.5 188.25 L 100.875 186.75 L 111.75 186.75 L 113.25 190.125 C 113.863281 191.148438 114.417969 191.773438 115.398438 192.445312 C 117.648438 193.660156 119.878906 193.71875 122.398438 193.648438 C 124.203125 193.449219 125.609375 192.996094 127.125 192 C 127.960938 191.316406 128.484375 190.699219 129.09375 189.820312 C 129.507812 188.613281 129.484375 187.640625 129.375 186.375 C 129.074219 185.175781 129.074219 185.175781 128.25 184.125 C 125.847656 182.066406 123.351562 181.347656 120.304688 180.726562 C 119.472656 180.539062 118.636719 180.351562 117.804688 180.164062 L 116.597656 179.886719 C 113.003906 179.027344 109.820312 177.765625 106.875 175.5 L 105.703125 174.679688 C 103.648438 172.894531 102.175781 170.261719 101.273438 167.71875 C 100.535156 164.789062 100.5 161.753906 101.179688 158.8125 C 102.203125 155.808594 103.78125 153.621094 106.125 151.5 C 108.777344 149.285156 112.058594 147.890625 115.421875 147.140625 C 120.394531 146.554688 125.300781 146.730469 129.945312 148.679688" style="stroke:none;fill-rule:nonzero;fill:#1f1f1f;fill-opacity:1;"/><path d="M 145.5 148.125 C 171.191406 148.125 171.191406 148.125 175.804688 150.257812 C 178.546875 151.875 180.640625 154 182.238281 156.746094 C 183.222656 158.671875 183.898438 160.59375 184.125 162.75 L 184.3125 164.179688 C 184.304688 164.949219 184.304688 164.949219 184.125 165.75 C 183.539062 166.667969 182.878906 167.46875 182.179688 168.300781 C 180.347656 170.527344 179.710938 172.976562 179.082031 175.757812 C 178.886719 176.9375 178.867188 178.011719 178.875 179.203125 C 178.800781 180.210938 178.800781 180.210938 178.5 181.125 C 176.457031 183.21875 173.65625 184.128906 170.910156 184.949219 C 168.285156 185.507812 165.6875 185.40625 163.007812 185.34375 L 157.125 185.25 L 157.125 202.875 L 145.5 202.875 Z M 157.5 158.625 L 157.125 159 C 157.09375 159.507812 157.078125 160.015625 157.082031 160.523438 L 157.082031 161.5 L 157.089844 162.5625 L 157.089844 163.648438 C 157.09375 164.792969 157.097656 165.941406 157.101562 167.085938 C 157.105469 167.859375 157.105469 168.636719 157.105469 169.410156 C 157.109375 171.316406 157.117188 173.21875 157.125 175.125 C 158.625 175.15625 160.125 175.175781 161.625 175.195312 L 162.902344 175.222656 C 165.386719 175.246094 167.261719 175.105469 169.5 174 C 170.867188 173.015625 171.871094 171.851562 172.664062 170.367188 C 173.03125 168.207031 173.1875 165.964844 172.6875 163.816406 C 172.082031 162.253906 171.144531 161.1875 169.875 160.125 C 167.917969 158.90625 165.976562 158.675781 163.71875 158.589844 C 162.78125 158.578125 161.839844 158.574219 160.898438 158.578125 L 159.917969 158.574219 C 159.113281 158.574219 158.304688 158.597656 157.5 158.625" style="stroke:none;fill-rule:nonzero;fill:#1d1d1d;fill-opacity:1;"/><path d="M 284.453125 165.246094 C 286.417969 165.890625 288.113281 166.871094 289.582031 168.335938 C 290.738281 169.699219 291.296875 171.15625 291.75 172.875 C 291.941406 174.722656 291.925781 176.554688 291.894531 178.410156 C 291.894531 178.933594 291.890625 179.457031 291.890625 179.980469 C 291.882812 181.351562 291.871094 182.71875 291.851562 184.085938 C 291.835938 185.484375 291.832031 186.882812 291.824219 188.285156 C 291.804688 191.023438 291.78125 193.761719 291.75 196.5 L 285 196.5 C 285 193.875 285 193.875 285.375 192.75 L 284.671875 193.367188 C 281.371094 196.15625 281.371094 196.15625 279.277344 196.722656 C 276.445312 197.140625 273.46875 197.335938 270.695312 196.53125 C 269.21875 195.84375 268.058594 195.046875 266.976562 193.828125 C 266.25 192.75 266.25 192.75 265.875 191.625 C 265.492188 186.011719 265.492188 186.011719 266.460938 183.890625 C 267.386719 182.425781 268.546875 181.3125 270 180.375 C 274.773438 177.898438 279.769531 178.027344 285 178.125 C 284.996094 176.71875 284.914062 175.378906 284.625 174 C 284.011719 172.960938 283.296875 172.152344 282.375 171.375 C 281.324219 170.851562 280.429688 170.921875 279.257812 170.90625 L 277.972656 170.878906 C 276.761719 170.941406 276.761719 170.941406 275.75 171.402344 C 274.578125 172.28125 274.578125 172.28125 273.375 174.75 L 266.625 174.75 C 266.902344 172.738281 267.160156 171.085938 268.335938 169.40625 C 269.875 167.546875 271.785156 166.273438 273.992188 165.324219 C 277.261719 164.484375 281.148438 164.636719 284.453125 165.246094 M 274.125 184.125 C 273.449219 184.78125 273.449219 184.78125 273 185.625 C 272.75 186.902344 272.789062 188.09375 273 189.375 C 273.632812 190.601562 273.632812 190.601562 274.875 191.25 C 276.425781 191.671875 277.875 191.773438 279.457031 191.457031 C 281.25 190.859375 282.527344 189.9375 283.875 188.625 C 284.632812 187.828125 284.632812 187.828125 285 186.75 C 285.085938 185.492188 285.066406 184.257812 285 183 C 279.390625 182.609375 279.390625 182.609375 274.125 184.125" style="stroke:none;fill-rule:nonzero;fill:#222222;fill-opacity:1;"/><path d="M 199.898438 165.234375 C 201.953125 166.125 203.839844 167.191406 205.222656 168.988281 C 205.921875 170.015625 206.535156 170.941406 206.792969 172.171875 C 206.847656 173.007812 206.847656 173.828125 206.820312 174.667969 L 206.816406 175.585938 C 206.804688 176.550781 206.789062 177.515625 206.765625 178.476562 C 206.757812 179.121094 206.753906 179.765625 206.75 180.410156 C 206.667969 187.972656 206.667969 187.972656 205.8125 190.070312 C 204.359375 192.390625 202.964844 194.125 200.546875 195.457031 C 198.03125 196.597656 195.503906 196.953125 192.75 196.875 C 190.054688 196.53125 187.800781 195.738281 185.613281 194.121094 C 183.519531 192.355469 182.378906 190.597656 181.410156 188.035156 C 180.644531 185.59375 180.667969 183.21875 180.65625 180.679688 L 180.632812 179.445312 C 180.617188 176.359375 181.109375 173.832031 182.371094 171.019531 C 183.9375 168.378906 185.679688 166.945312 188.320312 165.445312 C 191.6875 164.023438 196.445312 164.066406 199.898438 165.234375 M 190.3125 172.371094 C 189.292969 173.28125 188.824219 174.261719 188.25 175.5 C 187.730469 177.207031 187.789062 178.910156 187.78125 180.679688 L 187.757812 181.675781 C 187.746094 183.792969 187.992188 185.253906 189 187.125 C 190.027344 188.3125 190.925781 189.148438 192.375 189.75 C 193.902344 189.96875 195.421875 189.984375 196.898438 189.492188 C 198.015625 188.914062 198.789062 188.203125 199.617188 187.265625 C 200.78125 184.9375 201.164062 182.382812 201.09375 179.785156 C 200.855469 177.484375 200.371094 175.246094 199.21875 173.226562 C 198.101562 172.265625 197.164062 171.816406 195.75 171.375 C 193.71875 171.082031 192.050781 171.238281 190.3125 172.371094" style="stroke:none;fill-rule:nonzero;fill:#212121;fill-opacity:1;"/><path d="M 334.203125 165.269531 C 336.269531 165.96875 337.882812 166.773438 339.375 168.375 C 340.582031 170.292969 341.203125 172.097656 341.296875 174.371094 L 341.292969 175.632812 L 341.292969 177.0625 L 341.285156 178.601562 L 341.285156 180.183594 C 341.285156 181.566406 341.28125 182.949219 341.277344 184.332031 C 341.273438 185.742188 341.269531 187.15625 341.269531 188.570312 C 341.265625 191.335938 341.257812 194.105469 341.25 196.875 C 340.257812 196.886719 339.265625 196.894531 338.273438 196.898438 L 337.414062 196.90625 C 336.695312 196.910156 335.972656 196.898438 335.25 196.875 L 334.875 196.5 C 334.851562 195.929688 334.84375 195.359375 334.851562 194.789062 L 334.863281 193.851562 L 334.875 193.125 L 334.324219 193.660156 C 332.914062 194.972656 331.605469 196.128906 329.746094 196.710938 C 327.441406 197.148438 325.15625 197.25 322.90625 196.519531 C 321.523438 195.871094 320.445312 195.183594 319.335938 194.132812 C 318.125 192.046875 317.546875 190.324219 317.4375 187.921875 C 317.496094 185.933594 317.910156 184.429688 318.890625 182.699219 C 320.148438 181 321.691406 179.984375 323.601562 179.132812 C 327.320312 178.296875 331.085938 178.464844 334.875 178.5 C 334.851562 177.726562 334.820312 176.953125 334.78125 176.179688 L 334.730469 174.875 C 334.578125 173.589844 334.578125 173.589844 333.78125 172.558594 C 333.046875 171.738281 333.046875 171.738281 332.203125 171.234375 C 330.539062 170.871094 329.015625 170.90625 327.375 171.375 C 326.476562 172.054688 326.109375 172.640625 325.5 173.625 L 325.125 174.75 L 318.75 174.75 C 319.085938 172.0625 319.3125 171 320.671875 168.875 C 321.804688 167.464844 323.121094 166.519531 324.75 165.75 C 327.816406 164.707031 331.035156 164.558594 334.203125 165.269531 M 325.875 183.75 C 324.996094 184.402344 324.996094 184.402344 324.375 185.25 C 324.101562 186.375 323.949219 187.128906 324 188.25 C 324.335938 189.511719 324.335938 189.511719 325.125 190.5 C 326.074219 191.304688 326.074219 191.304688 327.375 191.625 C 328.707031 191.738281 329.84375 191.640625 331.125 191.25 C 332.53125 190.355469 333.671875 189.324219 334.578125 187.921875 C 334.957031 186.902344 334.949219 186.054688 334.921875 184.96875 L 334.902344 183.851562 L 334.875 183 C 331.882812 182.90625 328.753906 182.832031 325.875 183.75 M 248.25 157.875 L 255 157.875 L 255 165.375 L 262.875 165.375 L 262.875 171.375 L 255 171.375 C 255.035156 173.804688 255.074219 176.234375 255.117188 178.664062 C 255.132812 179.488281 255.148438 180.316406 255.160156 181.140625 C 255.175781 182.328125 255.195312 183.515625 255.21875 184.707031 L 255.234375 185.824219 L 255.253906 186.871094 L 255.269531 187.789062 C 255.386719 188.71875 255.640625 189.328125 256.125 190.125 C 256.75 190.640625 256.75 190.640625 257.625 190.875 C 258.941406 190.964844 258.941406 190.964844 260.34375 190.921875 L 261.777344 190.902344 L 262.875 190.875 C 263.289062 192.117188 263.222656 192.84375 263.085938 194.132812 L 262.96875 195.261719 L 262.875 196.125 C 261.097656 197.035156 259.433594 197 257.484375 196.992188 L 256.546875 197.011719 C 254.488281 197.011719 253.078125 196.699219 251.25 195.75 C 250.175781 195.042969 249.496094 194.425781 248.765625 193.371094 C 248 191.339844 248.113281 189.417969 248.140625 187.269531 L 248.144531 185.890625 C 248.152344 184.441406 248.164062 182.996094 248.179688 181.546875 C 248.183594 180.5625 248.191406 179.578125 248.195312 178.597656 C 248.207031 176.1875 248.226562 173.78125 248.25 171.375 L 244.125 171.375 L 244.125 165.375 L 248.25 165.375 Z M 248.25 157.875" style="stroke:none;fill-rule:nonzero;fill:#222222;fill-opacity:1;"/><path d="M 298.5 154.5 L 305.25 154.5 L 305.25 196.875 L 298.5 196.875 Z M 298.5 154.5" style="stroke:none;fill-rule:nonzero;fill:#1d1d1d;fill-opacity:1;"/><path d="M 242.25 165 C 242.261719 166.117188 242.269531 167.234375 242.273438 168.351562 L 242.28125 169.316406 L 242.285156 170.238281 L 242.292969 171.085938 L 242.25 171.75 L 241.875 172.125 C 240.714844 172.203125 239.558594 172.253906 238.394531 172.285156 C 237.183594 172.34375 236.289062 172.480469 235.195312 173.015625 C 234.085938 173.839844 233.175781 174.667969 232.5 175.875 C 231.953125 178.316406 232.050781 180.945312 232.007812 183.433594 L 231.984375 184.605469 C 231.957031 185.828125 231.9375 187.050781 231.914062 188.273438 L 231.863281 190.773438 C 231.824219 192.808594 231.785156 194.839844 231.75 196.875 C 230.765625 196.886719 229.78125 196.894531 228.796875 196.898438 L 227.949219 196.90625 C 225.835938 196.917969 225.835938 196.917969 225 196.5 L 225 165.375 L 231.75 165 L 232.125 169.875 L 232.6875 168.679688 C 233.480469 167.324219 234.328125 166.53125 235.6875 165.75 C 237.496094 165.023438 240.429688 164.089844 242.25 165" style="stroke:none;fill-rule:nonzero;fill:#282828;fill-opacity:1;"/><path d="M 346.5 167.625 L 352.5 167.625 L 352.5 196.5 L 347.25 196.875 L 346.5 196.5 Z M 346.5 167.625" style="stroke:none;fill-rule:nonzero;fill:#1e1e1e;fill-opacity:1;"/><path d="M 190.125 133.5 C 192.777344 134.367188 194.949219 136.011719 196.875 138 C 197.519531 138.761719 197.519531 138.761719 198 139.5 L 198 140.625 C 196.125 139.875 196.125 139.875 195.234375 139.453125 C 193.90625 139.011719 193.027344 138.964844 191.625 139.125 C 189.667969 139.800781 187.964844 140.75 186.515625 142.242188 C 184.660156 144.539062 183.5 147.34375 182.25 150 C 182.003906 150.5 181.753906 151 181.5 151.5 L 180.949219 151.074219 C 179.203125 149.738281 177.386719 148.507812 175.5 147.375 C 175.945312 144.058594 178.078125 140.515625 179.953125 137.789062 C 181.289062 136.132812 183.058594 134.953125 184.875 133.875 C 186.628906 133.289062 188.292969 133.289062 190.125 133.5" style="stroke:none;fill-rule:nonzero;fill:#037fd5;fill-opacity:1;"/><path d="M 312 189.1875 C 313.078125 189.253906 313.597656 189.421875 314.601562 189.914062 C 315.394531 190.898438 315.566406 191.328125 315.773438 192.539062 C 315.828125 193.429688 315.828125 193.429688 315.75 194.25 C 315.070312 195.375 315.070312 195.375 314.25 196.125 C 313.5 196.5 313.5 196.5 312.257812 196.59375 C 310.875 196.5 310.875 196.5 309.820312 196.03125 C 309 195.375 309 195.375 308.484375 194.742188 C 308.183594 193.628906 308.214844 192.726562 308.402344 191.589844 C 308.625 190.875 308.625 190.875 309.398438 189.9375 C 310.410156 189.421875 310.90625 189.253906 312 189.1875" style="stroke:none;fill-rule:nonzero;fill:#242424;fill-opacity:1;"/><path d="M 349.734375 158.273438 C 351 158.625 351 158.625 351.703125 159.046875 C 352.378906 160.167969 352.476562 161.074219 352.5 162.375 C 351.914062 163.453125 351.914062 163.453125 351 164.25 C 349.898438 164.625 349.898438 164.625 348.75 164.625 C 347.695312 164.132812 347.695312 164.132812 346.875 163.5 C 346.378906 162.511719 346.355469 161.585938 346.371094 160.492188 C 346.5 159.75 346.5 159.75 347.273438 158.789062 C 348.375 158.25 348.375 158.25 349.734375 158.273438" style="stroke:none;fill-rule:nonzero;fill:#252525;fill-opacity:1;"/><path d="M 168.75 187.5 L 169.5 187.875 L 168.773438 188.578125 C 167.984375 189.308594 167.984375 189.308594 167.625 190.125 L 167.8125 191.367188 C 167.984375 192.625 167.953125 193.417969 167.625 194.625 L 167.25 194.625 L 166.5 188.25 Z M 168.75 187.5" style="stroke:none;fill-rule:nonzero;fill:#3f8ed7;fill-opacity:1;"/></g></svg>